inDegrees=no
num_controls=7
num_derivatives=13
num_iterations=117
num_multipliers=7
num_parameters=0
num_slacks=7
num_states=26
objective=0.477013
objective_accelerations=0.043746
objective_balance=0.003624
objective_effort=0.040204
objective_height=0.383773
objective_ligament=0.005667
solver_duration=1640.662360
status=Solve_Succeeded
success=true
DataType=double
version=3
OpenSimVersion=4.5
endheader
time	/jointset/ground_pelvis/pelvis_tilt/value	/jointset/ground_pelvis/pelvis_tx/value	/jointset/ground_pelvis/pelvis_ty/value	/jointset/hip_l/hip_flexion_l/value	/jointset/hip_l/hip_adduction_l/value	/jointset/hip_l/hip_rotation_l/value	/jointset/back/lumbar_extension/value	/jointset/patellofemoral_l/patellar_flexion_l/value	/jointset/knee_l/knee_flexion_l/value	/jointset/knee_l/knee_adduction_l/value	/jointset/knee_l/knee_rotation_l/value	/jointset/ankle_l/ankle_angle_l/value	/jointset/subtalar_l/subtalar_angle_l/value	/jointset/ground_pelvis/pelvis_tilt/speed	/jointset/ground_pelvis/pelvis_tx/speed	/jointset/ground_pelvis/pelvis_ty/speed	/jointset/hip_l/hip_flexion_l/speed	/jointset/hip_l/hip_adduction_l/speed	/jointset/hip_l/hip_rotation_l/speed	/jointset/back/lumbar_extension/speed	/jointset/patellofemoral_l/patellar_flexion_l/speed	/jointset/knee_l/knee_flexion_l/speed	/jointset/knee_l/knee_adduction_l/speed	/jointset/knee_l/knee_rotation_l/speed	/jointset/ankle_l/ankle_angle_l/speed	/jointset/subtalar_l/subtalar_angle_l/speed	/forceset/tau_hip_flexion_l	/forceset/tau_hip_adduction_l	/forceset/tau_hip_rotation_l	/forceset/tau_knee_flexion_l	/forceset/tau_ankle_angle_l	/forceset/tau_subtalar_angle_l	/forceset/tau_lumbar_extension	lambda_cid13_p0	lambda_cid13_p1	lambda_cid13_p2	lambda_cid13_p3	lambda_cid13_p4	lambda_cid13_p5	lambda_cid14_p0	/jointset/ground_pelvis/pelvis_tilt/accel	/jointset/ground_pelvis/pelvis_tx/accel	/jointset/ground_pelvis/pelvis_ty/accel	/jointset/hip_l/hip_flexion_l/accel	/jointset/hip_l/hip_adduction_l/accel	/jointset/hip_l/hip_rotation_l/accel	/jointset/back/lumbar_extension/accel	/jointset/patellofemoral_l/patellar_flexion_l/accel	/jointset/knee_l/knee_flexion_l/accel	/jointset/knee_l/knee_adduction_l/accel	/jointset/knee_l/knee_rotation_l/accel	/jointset/ankle_l/ankle_angle_l/accel	/jointset/subtalar_l/subtalar_angle_l/accel	gamma_cid13_p0	gamma_cid13_p1	gamma_cid13_p2	gamma_cid13_p3	gamma_cid13_p4	gamma_cid13_p5	gamma_cid14_p0
0	-0.03675665988087658	0.05664862931865831	0.9203427808617708	0.3085816938045678	-0.2956212045064728	-0.3011875610009036	-0.3879492264334186	0.2499269421185098	0.2499269421184919	-0.1745323570376944	-0.1741208870216057	-0.0008036623358878681	0.000452191054577608	0	0	0	0	0	0	0	0	0	0	0	0	0	0.06530723787524763	-0.04226583656441306	-0.01913336287070699	-0.2375788043579649	0.1862284388165071	-0.01540892736256228	0.009067476755198324	16.26107324562885	1.219485366957923	2.350129436484217	8.867881651863774	-624.6771762859634	-71.68076228669781	-23.1829720778114	-0.9309226400352368	-1.935031385053262	-0.8979807502227669	9.062954778683267	-0.7803360699289532	3.278033207211902	-6.941970603004232	9.34372817314792	9.343728173148333	1.382161274451553	-0.07656610330365472	1.769337362438273	-0.2370709966622352	3.63196039280703e-09	2.078654434706409e-07	-9.828090815736131e-09	1.2697929803049e-08	6.059043787173053e-08	5.353938538630182e-08	2.1253263012362e-08
0.01	-0.0368001972054464	0.0565530237214379	0.9202986738989635	0.3090248424781106	-0.2956611146183875	-0.3010226743724791	-0.3882983320837658	0.25038576665269	0.2503857666526792	-0.1744681071089245	-0.1741216179102029	-0.00071753349592457	0.0004385921362684142	-0.008731009452024797	-0.01902429631442227	-0.008807712457821531	0.08831893019514306	-0.00801619853368337	0.03283450762888549	-0.06967235076245877	0.09143429746350019	0.09143429746351681	0.01266055758376652	-0.0001938708726414888	0.01716777965497027	-0.002773956113130929	0.06674772499650275	-0.05425637701561079	-0.01959140114789311	-0.2426097773166232	0.1907983411304298	-0.006301455417408999	0.00885353187985862	18.03293368000674	-2.891942116252924	2.829484327124915	6.54378022499154	-625.8925857421834	-80.58233841368178	-23.18824859435566	-0.8477266285289542	-1.871602746943851	-0.8701023599631063	8.669737374513268	-0.8174197975708931	3.264748975229712	-6.957550415868635	8.993684876543995	8.993684876545871	1.179623413204421	0.002039559518446115	1.681804128303651	-0.305715411597047	-3.056128449182129e-08	1.425380203069423e-07	1.221246971997784e-07	2.477058802806223e-08	-2.4839674506421e-08	-4.161918603237446e-08	-2.728002658509556e-09
0.02	-0.03693175193070831	0.05627008036261032	0.9201669026382976	0.3103418555005083	-0.2957822183261348	-0.3005337247808635	-0.3893396978623437	0.2517490150302321	0.2517490150302318	-0.174282927521674	-0.1741257200797509	-0.0004614656871565052	0.0003956221582361269	-0.01760348013367552	-0.03746755232143334	-0.01753285957170319	0.1747728697736195	-0.01623871916668428	0.06481259263788799	-0.1384520256449192	0.1808847686707175	0.1808847686707353	0.02418593168214174	-0.0006742561947694264	0.03398779376102153	-0.005874211944606715	0.06818821211778671	-0.06624691746680537	-0.02004943942515234	-0.2476407502752486	0.1953682434443672	0.002806016527753671	0.008639587004531548	19.87725508684981	-7.01488655710397	3.309338206574474	4.102866288394083	-626.0280492949532	-89.39318705583338	-23.20392306056531	-0.9592148859598938	-1.818823323571501	-0.8814676814348044	8.689956655350015	-0.8216004897924879	3.106748683235302	-6.763435427004243	8.946962921891419	8.946962921888753	1.155124577373266	-0.1338689932010066	1.699784252653927	-0.3023309403314227	-6.47545293764496e-08	7.721059714324368e-08	2.540774852152928e-07	3.684324625307547e-08	-1.102697868845725e-07	-1.367777574510507e-07	-2.670926832938111e-08
0.03	-0.03715171713394896	0.0558060380435579	0.9199484035428025	0.3125119306561847	-0.2959852691283243	-0.2997303441165128	-0.3910592070726079	0.2539954306272761	0.2539954306272873	-0.1739862038789649	-0.1741359989519908	-3.867661676875669e-05	0.0003214648021527521	-0.0262950276523471	-0.05520224680171792	-0.02613945311924447	0.258707194156542	-0.02427610808391299	0.09571206853294534	-0.2048017410785962	0.2679282189982874	0.2679282189983231	0.03515809519750403	-0.001330575936447043	0.05054627702089687	-0.008866545603844093	0.05815352932050649	-0.05807451584252002	-0.018679347283807	-0.2376468847524769	0.184930392252337	0.001946242518542885	0.01724876162150566	16.40400095113475	-6.153929107192581	3.309813776859637	5.153067133033712	-628.3314354017	-86.38080006296195	-23.22951122097437	-0.8099522059700114	-1.72998539102024	-0.846151629357784	8.164915161955751	-0.7805539207468276	3.058790547375455	-6.473528301287135	8.51252176586363	8.512521765867852	1.068195411527171	-0.02383018835419314	1.630318271347105	-0.2841189467292248	-8.628052099090606e-08	9.158675919119482e-08	2.910572054160573e-07	6.544534205298049e-08	-2.149240222312916e-07	-1.58342007810188e-07	-2.822076234097068e-08
0.04	-0.03745576331662892	0.05516881020354855	0.919644659224243	0.3155052980221165	-0.2962658429852965	-0.2986225199922632	-0.3934227711771615	0.2570981778631529	0.2570981778631548	-0.1735797719665036	-0.1741513043663478	0.0005489848679558908	0.0002200972358750372	-0.03441967601690209	-0.07210465651282179	-0.03458190418458659	0.339431311827154	-0.03174333012349389	0.1257012846173884	-0.2672630045017088	0.3521510964328103	0.3521510964328728	0.04612758562924752	-0.001679564626247613	0.06696227662847501	-0.01131625398345664	0.04811884652325407	-0.04990211421823132	-0.01730925514266007	-0.2276530192296619	0.1744925410603174	0.001086468509341783	0.02585793623849614	12.99830291988487	-5.301748163309106	3.308202820756441	6.084916547078488	-629.6395332725521	-83.28195708997755	-23.26405863429388	-0.8458350551360514	-1.652366369735817	-0.8486391849949809	8.047915312887984	-0.7075671142629095	2.924696721112448	-5.985745024891033	8.382848343282072	8.382848343281204	1.154589960649565	-0.07240278282562525	1.671287522193975	-0.1938058844066136	-1.075453321255652e-07	1.076062941301078e-07	3.260787180330126e-07	9.438825099875959e-08	-3.199746312474657e-07	-1.783888494876853e-07	-2.926896209154412e-08
